<svg width="25" height="37" viewBox="0 0 25 37" fill="none" xmlns="http://www.w3.org/2000/svg">
<circle cx="12.5" cy="12.5" r="12.5" fill="#1C274C"/>
<circle cx="12.5" cy="12.5" r="10.5" fill="white"/>
<path d="M9 36L10 24H17L9 36Z" fill="#1C274C" stroke="#1C274C" stroke-width="0.5"/>
<path opacity="0.6" d="M17.5748 18.9795C18.5068 18.4955 19.0667 17.875 19.0667 17.1984C19.0667 16.4813 18.4376 15.8271 17.4031 15.3318C16.2068 14.759 14.4683 14.3984 12.5333 14.3984C10.5984 14.3984 8.85989 14.759 7.66359 15.3318C6.62906 15.8271 6 16.4813 6 17.1984C6 17.9155 6.62906 18.5698 7.66359 19.0651C8.85989 19.6379 10.5984 19.9984 12.5333 19.9984C14.563 19.9984 16.3764 19.6018 17.5748 18.9795Z" fill="#1C274C"/>
<path fill-rule="evenodd" clip-rule="evenodd" d="M10.6641 7.86667C10.6641 6.83574 11.4998 6 12.5307 6C13.5617 6 14.3974 6.83574 14.3974 7.86667C14.3974 8.8976 13.5617 9.73333 12.5307 9.73333C11.4998 9.73333 10.6641 8.8976 10.6641 7.86667Z" fill="#1C274C"/>
<path d="M10.0159 13.2734L8.56571 12.7644C8.14856 12.618 7.86719 12.2069 7.86719 11.744C7.86719 11.0592 8.46687 10.5488 9.10282 10.6923L10.3679 10.9777C10.4382 10.9935 10.4734 11.0015 10.5083 11.0091C11.8445 11.3001 13.2232 11.3001 14.5595 11.0091C14.5943 11.0015 14.6295 10.9935 14.6999 10.9777L15.9649 10.6923C16.6009 10.5488 17.2005 11.0592 17.2005 11.744C17.2005 12.2069 16.9191 12.618 16.502 12.7644L15.0518 13.2734C14.8765 13.3349 14.7889 13.3656 14.723 13.4085C14.4986 13.5543 14.3769 13.8257 14.4127 14.1009C14.4232 14.1817 14.4563 14.2724 14.5227 14.4539L15.3539 16.7294C15.6013 17.4067 15.1264 18.1346 14.4371 18.1346C14.0847 18.1346 13.7593 17.9359 13.5844 17.6136L12.5339 15.6779L11.4833 17.6136C11.3085 17.9359 10.983 18.1346 10.6306 18.1346C9.94131 18.1346 9.46645 17.4067 9.71387 16.7294L10.5451 14.4539C10.6114 14.2724 10.6445 14.1817 10.655 14.1009C10.6908 13.8257 10.5691 13.5543 10.3447 13.4085C10.2788 13.3656 10.1912 13.3349 10.0159 13.2734Z" fill="#1C274C"/>
</svg>
